<?xml version="1.0" encoding="UTF-8"?>
<svg version="1.1" xmlns="http://www.w3.org/2000/svg" width="500" height="500">
<path d="M0 0 C165 0 330 0 500 0 C500 165 500 330 500 500 C335 500 170 500 0 500 C0 335 0 170 0 0 Z " fill="#FEFEFE" transform="translate(0,0)"/>
<path d="M0 0 C0.8677002 -0.00953201 1.73540039 -0.01906403 2.62939453 -0.02888489 C3.55864746 -0.02797348 4.48790039 -0.02706207 5.4453125 -0.02612305 C6.40679199 -0.03040817 7.36827148 -0.0346933 8.35888672 -0.03910828 C10.38964043 -0.04484563 12.4204147 -0.04535622 14.45117188 -0.04101562 C17.55894956 -0.03785336 20.66577732 -0.06133039 23.7734375 -0.08666992 C25.74739463 -0.08894273 27.72135432 -0.0896465 29.6953125 -0.08862305 C30.62456543 -0.09783279 31.55381836 -0.10704254 32.51123047 -0.11653137 C38.93086703 -0.07044798 38.93086703 -0.07044798 42.15649414 1.67041016 C44.63209291 4.47945169 44.03073638 7.13363856 43.90234375 10.72387695 C43.34327751 16.70259712 42.36865299 22.60364689 41.359375 28.52075195 C40.85409878 31.4873087 40.40031783 34.44825968 40.03125 37.43481445 C39.87914062 38.66071289 39.72703125 39.88661133 39.5703125 41.1496582 C39.3846875 42.75454102 39.3846875 42.75454102 39.1953125 44.3918457 C38.17714504 49.0881431 36.56167358 51.61375082 32.5703125 54.2746582 C30.5213623 54.52862549 30.5213623 54.52862549 28.14648438 54.53344727 C27.25546021 54.53975159 26.36443604 54.54605591 25.44641113 54.55255127 C24.00727356 54.54647858 24.00727356 54.54647858 22.5390625 54.5402832 C21.05786926 54.54315338 21.05786926 54.54315338 19.54675293 54.54608154 C17.45873764 54.5474427 15.37071388 54.5437511 13.28271484 54.53540039 C10.08281483 54.52470001 6.88347626 54.53529814 3.68359375 54.5480957 C1.65624876 54.5467741 -0.37109588 54.54421168 -2.3984375 54.5402832 C-3.35786255 54.54433167 -4.3172876 54.54838013 -5.30578613 54.55255127 C-6.64232239 54.54309479 -6.64232239 54.54309479 -8.00585938 54.53344727 C-8.78956909 54.53185608 -9.57327881 54.53026489 -10.3807373 54.52862549 C-12.4296875 54.2746582 -12.4296875 54.2746582 -15.4296875 52.2746582 C-17.14239369 42.56932312 -14.89386947 31.8359625 -13.6171875 22.2121582 C-13.36956665 20.30309692 -13.36956665 20.30309692 -13.11694336 18.35546875 C-12.85989624 16.53462769 -12.85989624 16.53462769 -12.59765625 14.67700195 C-12.44578857 13.58895264 -12.2939209 12.50090332 -12.13745117 11.37988281 C-11.22021779 7.35563605 -10.2470266 3.42109718 -6.60173035 1.121521 C-4.24095855 0.20107424 -2.52632034 0.0153012 0 0 Z " fill="#060606" transform="translate(366.4296875,231.725341796875)"/>
<path d="M0 0 C1.2367598 -0.00956978 1.2367598 -0.00956978 2.49850464 -0.01933289 C3.38603424 -0.02044571 4.27356384 -0.02155853 5.18798828 -0.02270508 C6.10411896 -0.02603348 7.02024963 -0.02936188 7.96414185 -0.03279114 C9.90252175 -0.03785409 11.84091037 -0.04019966 13.77929688 -0.04003906 C16.73989289 -0.04222275 19.70011459 -0.06037742 22.66064453 -0.0793457 C24.54475784 -0.08228033 26.42887292 -0.08426466 28.31298828 -0.08520508 C29.63820999 -0.09598335 29.63820999 -0.09598335 30.99020386 -0.10697937 C35.40371458 -0.09063541 38.87014505 0.06553201 42.88330078 2.14526367 C43.61404802 26.5846991 43.61404802 26.5846991 38.88330078 33.14526367 C34.73193979 35.2879172 30.75610731 35.48331969 26.17626953 35.55932617 C25.08817741 35.5883754 25.08817741 35.5883754 23.97810364 35.61801147 C21.67578656 35.67748475 19.37341859 35.72406212 17.07080078 35.77026367 C15.50372246 35.80847325 13.93666447 35.8475267 12.36962891 35.88745117 C8.54101926 35.9831593 4.71231136 36.06730815 0.88330078 36.14526367 C0.55330078 37.13526367 0.22330078 38.12526367 -0.11669922 39.14526367 C1.35138184 39.121698 1.35138184 39.121698 2.84912109 39.09765625 C6.48689516 39.04327797 10.12463342 39.00888519 13.76269531 38.98046875 C15.335999 38.96540003 16.9092608 38.94494122 18.48242188 38.91894531 C20.74636174 38.88247629 23.00974535 38.86551859 25.27392578 38.85229492 C25.97511536 38.83681107 26.67630493 38.82132721 27.39874268 38.80537415 C30.29288441 38.8043811 32.49151161 38.94340467 35.08538818 40.27983093 C36.88330078 42.14526367 36.88330078 42.14526367 37.27392578 45.06323242 C37.22751953 46.14217773 37.18111328 47.22112305 37.13330078 48.33276367 C37.09720703 49.41944336 37.06111328 50.50612305 37.02392578 51.62573242 C36.97751953 52.45717773 36.93111328 53.28862305 36.88330078 54.14526367 C29.81753409 54.2212162 22.75187234 54.27382228 15.68579102 54.31005859 C13.2811286 54.32516183 10.8764938 54.34564576 8.47192383 54.37158203 C5.01913648 54.40789718 1.56671274 54.42497468 -1.88623047 54.43823242 C-3.50353813 54.46145821 -3.50353813 54.46145821 -5.15351868 54.4851532 C-6.15432968 54.48537979 -7.15514069 54.48560638 -8.1862793 54.48583984 C-9.50865349 54.4958326 -9.50865349 54.4958326 -10.85774231 54.50602722 C-13.59064835 54.06957229 -14.46439505 53.32570178 -16.11669922 51.14526367 C-17.70234835 43.06156224 -15.27032817 33.97332308 -13.90185547 25.96557617 C-13.3835369 22.90217271 -12.94482691 19.85156528 -12.61279297 16.76245117 C-12.53786621 16.08601562 -12.46293945 15.40958008 -12.38574219 14.71264648 C-12.1921324 12.89189062 -12.01514587 11.06938877 -11.83935547 9.24682617 C-10.99121985 5.6067198 -9.72753944 3.78976113 -7.11669922 1.14526367 C-4.39850995 0.23920058 -2.79529956 0.01470924 0 0 Z " fill="#050505" transform="translate(280.11669921875,231.854736328125)"/>
<path d="M0 0 C1.58251053 0.00137466 1.58251053 0.00137466 3.19699097 0.0027771 C5.42450466 0.00881439 7.65201019 0.02456412 9.87939453 0.04931641 C13.29880481 0.08587461 16.71713327 0.09033542 20.13671875 0.08984375 C22.29948858 0.09967279 24.46225104 0.11132886 26.625 0.125 C27.65207062 0.12722565 28.67914124 0.12945129 29.73733521 0.13174438 C30.68526947 0.14450409 31.63320374 0.15726379 32.60986328 0.17041016 C33.86417648 0.18184555 33.86417648 0.18184555 35.14382935 0.19351196 C37.1796875 0.4609375 37.1796875 0.4609375 39.1796875 2.4609375 C39.24243254 5.32629413 39.18213559 8.04777716 38.9921875 10.8984375 C38.94030273 11.70869385 38.88841797 12.5189502 38.83496094 13.35375977 C37.85744315 26.47314616 37.85744315 26.47314616 35.1796875 31.4609375 C31.02837591 34.68522872 27.32123662 34.86319945 22.25390625 34.75390625 C21.50631546 34.74966141 20.75872467 34.74541656 19.98847961 34.74104309 C17.61434018 34.72432806 15.24106783 34.68669097 12.8671875 34.6484375 C11.25196544 34.63338131 9.63672999 34.61969453 8.02148438 34.60742188 C4.07388762 34.5744483 0.12693428 34.52271719 -3.8203125 34.4609375 C-3.8203125 35.7809375 -3.8203125 37.1009375 -3.8203125 38.4609375 C-2.87188477 38.45046387 -1.92345703 38.43999023 -0.94628906 38.42919922 C2.57977741 38.39507042 6.10566779 38.37001582 9.63183594 38.35107422 C11.15660373 38.34103006 12.68135234 38.32739219 14.20605469 38.31005859 C16.40043888 38.28574012 18.59456792 38.27443861 20.7890625 38.265625 C22.10874023 38.25515137 23.42841797 38.24467773 24.78808594 38.23388672 C27.92549429 38.44392053 29.62883367 38.68747933 32.1796875 40.4609375 C33.50197939 43.10552129 33.27645944 45.13855051 33.2421875 48.0859375 C33.23316406 49.08882813 33.22414062 50.09171875 33.21484375 51.125 C33.20324219 51.89585937 33.19164062 52.66671875 33.1796875 53.4609375 C26.1322317 53.53696562 19.08488156 53.58952811 12.03710938 53.62573242 C9.63928271 53.64082432 7.24148367 53.6613 4.84375 53.68725586 C1.39836817 53.72362061 -2.04664887 53.74065998 -5.4921875 53.75390625 C-6.56523132 53.76939011 -7.63827515 53.78487396 -8.74383545 53.80082703 C-9.74457092 53.80105362 -10.7453064 53.80128021 -11.77636719 53.80151367 C-12.65572937 53.80817551 -13.53509155 53.81483734 -14.44110107 53.82170105 C-17.35624234 53.37967362 -18.72644104 52.51646804 -20.8203125 50.4609375 C-21.37803301 45.07708109 -20.43520641 39.71870362 -19.6484375 34.38671875 C-19.52474792 33.54046432 -19.40105835 32.6942099 -19.27362061 31.8223114 C-19.01089057 30.04443167 -18.74515491 28.26699376 -18.4765625 26.48999023 C-18.07029999 23.77335386 -17.68741145 21.05402314 -17.3046875 18.33398438 C-17.04570818 16.60134705 -16.78533923 14.86891674 -16.5234375 13.13671875 C-16.41283997 12.32624588 -16.30224243 11.51577301 -16.18829346 10.68074036 C-15.66510149 7.37139069 -15.05614443 4.8753946 -13.39013672 1.94750977 C-9.14685047 -0.50711402 -4.80919114 -0.06755772 0 0 Z " fill="#030303" transform="translate(99.8203125,232.5390625)"/>
<path d="M0 0 C1.7492214 -0.08142927 3.49954542 -0.13938541 5.25 -0.1875 C6.22453125 -0.22230469 7.1990625 -0.25710937 8.203125 -0.29296875 C11.42944625 0.04498389 12.747852 0.68969795 15 3 C15.51688171 7.82422928 14.8661169 12.02747127 13.9765625 16.78125 C13.79432129 17.76158203 13.61208008 18.74191406 13.42431641 19.75195312 C13.28429199 20.49380859 13.14426758 21.23566406 13 22 C13.9787207 21.98952637 14.95744141 21.97905273 15.96582031 21.96826172 C19.60364105 21.93200907 23.24144587 21.90908042 26.87939453 21.89013672 C28.45266405 21.88009113 30.02591496 21.86645219 31.59912109 21.84912109 C33.86300252 21.82480904 36.12663666 21.81350253 38.390625 21.8046875 C39.09181458 21.79436493 39.79300415 21.78404236 40.51544189 21.77340698 C44.18563476 21.77256743 46.88089213 21.97887405 50 24 C50.24720366 33.84363085 49.58775067 43.18666353 48.1875 52.9375 C48.02185547 54.19884766 47.85621094 55.46019531 47.68554688 56.75976562 C46.02562863 68.64227475 46.02562863 68.64227475 43 74 C39.57905758 76.28062828 38.31812778 76.21925007 34.3125 76.125 C33.31863281 76.10695313 32.32476562 76.08890625 31.30078125 76.0703125 C30.54152344 76.04710937 29.78226563 76.02390625 29 76 C29.77145039 68.90859063 30.61952682 61.82865564 31.5 54.75 C31.63019531 53.6878125 31.76039063 52.625625 31.89453125 51.53125 C32.02214844 50.50515625 32.14976562 49.4790625 32.28125 48.421875 C32.45237305 47.03887207 32.45237305 47.03887207 32.62695312 45.62792969 C32.99005378 43.07006621 33.49333262 40.5333369 34 38 C26.08 38 18.16 38 10 38 C10 40.97 10 43.94 10 47 C9.60703144 49.87129024 9.17473888 52.66240608 8.625 55.5 C8.48562012 56.23686035 8.34624023 56.9737207 8.20263672 57.73291016 C7.92757054 59.17708728 7.64923449 60.62064654 7.3671875 62.06347656 C7.05675613 63.7006718 6.78915399 65.34590034 6.53125 66.9921875 C5.95352622 70.38075966 5.42418484 72.56255938 3 75.0625 C-1.34324872 76.41976523 -5.48764552 76.23657004 -10 76 C-10.17312415 72.01814454 -9.97681972 68.5332623 -9.109375 64.640625 C-7.7389517 58.01630655 -6.95192613 51.33514345 -6.125 44.625 C-5.78151104 41.88635275 -5.43439986 39.14817483 -5.0859375 36.41015625 C-4.9979187 35.71774338 -4.9098999 35.02533051 -4.81921387 34.31193542 C-3.35255231 22.85551108 -1.67000115 11.42823134 0 0 Z " fill="#070707" transform="translate(211,210)"/>
<path d="M0 0 C1.1711586 -0.00058411 2.3423172 -0.00116821 3.54896545 -0.00177002 C7.41795545 0.00101548 11.28617397 0.03213141 15.1550293 0.06347656 C17.83832606 0.07093729 20.52158015 0.07682777 23.20487976 0.08062744 C29.54430418 0.09304859 35.88345194 0.12585822 42.22275466 0.1660254 C49.44155748 0.21077018 56.66037366 0.2327369 63.87928069 0.25280714 C78.72525266 0.29459184 93.57098207 0.36492688 108.41674805 0.45410156 C107.79507896 3.77700535 107.18525745 6.54126255 105.41674805 9.45410156 C102.63836681 10.84329218 100.38266833 10.57116532 97.27392578 10.56420898 C95.33567177 10.56507759 95.33567177 10.56507759 93.35826111 10.56596375 C92.66499159 10.56453558 91.97172207 10.56310741 91.25744438 10.56163597 C87.57804968 10.55811255 83.8988071 10.58393703 80.21948242 10.60449219 C75.5408866 10.62876517 70.86273182 10.64459836 66.18408203 10.62915039 C62.40122547 10.61742766 58.6194645 10.63505227 54.83677864 10.67159462 C53.40124934 10.68016294 51.96561394 10.67820201 50.53011894 10.66509056 C41.65043713 10.59010516 35.02614585 11.0930378 28.41674805 17.45410156 C27.01962531 19.4100734 25.67894898 21.40846557 24.41674805 23.45410156 C20.52260551 27.23640188 17.54520661 29.58295201 12.05883789 29.56762695 C10.70766373 29.56751366 10.70766373 29.56751366 9.32919312 29.56739807 C8.35519562 29.56223679 7.38119812 29.5570755 6.37768555 29.55175781 C5.38169342 29.55034286 4.38570129 29.54892792 3.35952759 29.54747009 C0.17023752 29.54186092 -3.01898301 29.52930686 -6.20825195 29.51660156 C-8.36710511 29.51158774 -10.52595936 29.50702463 -12.68481445 29.50292969 C-17.98431745 29.49188852 -23.28377973 29.47514144 -28.58325195 29.45410156 C-26.82046485 23.90763748 -24.45776955 18.97361242 -21.77075195 13.82910156 C-21.3447168 12.98347656 -20.91868164 12.13785156 -20.47973633 11.26660156 C-20.05370117 10.44933594 -19.62766602 9.63207031 -19.1887207 8.79003906 C-18.80868896 8.05317871 -18.42865723 7.31631836 -18.03710938 6.55712891 C-13.17499797 -0.47599076 -7.91483259 -0.10309099 0 0 Z " fill="#010101" transform="translate(45.583251953125,219.5458984375)"/>
<path d="M0 0 C1.53113434 0.00045319 1.53113434 0.00045319 3.09320068 0.00091553 C4.18811829 0.02156067 5.28303589 0.04220581 6.41113281 0.06347656 C7.53747131 0.06913635 8.66380981 0.07479614 9.82427979 0.08062744 C13.42137164 0.10301611 17.01746707 0.15321943 20.61425781 0.20410156 C23.05304551 0.22416324 25.49184882 0.24241458 27.93066406 0.25878906 C33.90886856 0.30288913 39.886492 0.36982693 45.86425781 0.45410156 C44.72773927 10.11945053 44.72773927 10.11945053 42.86425781 13.45410156 C39.22334427 16.02831493 35.31291555 15.71047011 31.03613281 15.64941406 C30.28712708 15.64658417 29.53812134 15.64375427 28.76641846 15.64083862 C26.38220006 15.62967416 23.99836202 15.60457687 21.61425781 15.57910156 C19.99447158 15.56906692 18.37467945 15.55994191 16.75488281 15.55175781 C12.79119535 15.52974711 8.827791 15.49524332 4.86425781 15.45410156 C4.80890869 16.0087207 4.75355957 16.56333984 4.6965332 17.13476562 C4.44297675 19.65819326 4.18491276 22.1811404 3.92675781 24.70410156 C3.83974609 25.57679688 3.75273437 26.44949219 3.66308594 27.34863281 C3.57607422 28.19296875 3.4890625 29.03730469 3.39941406 29.90722656 C3.32086182 30.68227539 3.24230957 31.45732422 3.16137695 32.25585938 C2.86425781 34.45410156 2.86425781 34.45410156 1.86425781 38.45410156 C14.40425781 38.45410156 26.94425781 38.45410156 39.86425781 38.45410156 C39.86425781 48.76179387 39.86425781 48.76179387 36.86425781 52.45410156 C34.50950039 53.63148028 33.0873667 53.58691429 30.4621582 53.59936523 C29.09547752 53.60893501 29.09547752 53.60893501 27.70118713 53.61869812 C26.71472702 53.61981094 25.72826691 53.62092377 24.71191406 53.62207031 C23.70084091 53.62539871 22.68976776 53.62872711 21.64805603 53.63215637 C19.50699316 53.63722516 17.36592238 53.63956471 15.22485352 53.6394043 C11.94371568 53.64159026 8.66291422 53.65974517 5.38183594 53.67871094 C3.30436313 53.68164492 1.22688873 53.68362968 -0.85058594 53.68457031 C-1.83502182 53.69175583 -2.8194577 53.69894135 -3.83372498 53.7063446 C-4.74799759 53.70326797 -5.6622702 53.70019135 -6.60424805 53.69702148 C-7.40873886 53.6984465 -8.21322968 53.69987152 -9.042099 53.70133972 C-11.13574219 53.45410156 -11.13574219 53.45410156 -14.13574219 51.45410156 C-15.39143493 41.70106021 -13.76552471 31.51264235 -12.21923828 21.87036133 C-11.88030099 19.73227744 -11.57191261 17.59108215 -11.26464844 15.44824219 C-11.051609 14.07100875 -10.83683179 12.69404273 -10.62011719 11.31738281 C-10.4315918 10.09317627 -10.24306641 8.86896973 -10.04882812 7.60766602 C-8.44807155 2.07906369 -5.70708116 -0.05650575 0 0 Z " fill="#040404" transform="translate(154.1357421875,232.5458984375)"/>
<path d="M0 0 C1.04489594 0.0246936 2.08979187 0.04938721 3.16635132 0.0748291 C4.24355438 0.07857544 5.32075745 0.08232178 6.43060303 0.08618164 C8.70527547 0.09961771 10.97990189 0.12743785 13.25424194 0.1685791 C16.74621227 0.23097053 20.23637855 0.25052688 23.72885132 0.2623291 C25.93720679 0.28066617 28.14554382 0.30141678 30.35385132 0.3248291 C31.40279572 0.33332886 32.45174011 0.34182861 33.5324707 0.35058594 C34.50042572 0.36980103 35.46838074 0.38901611 36.46566772 0.40881348 C37.31964142 0.42246948 38.17361511 0.43612549 39.0534668 0.45019531 C41.12728882 0.7310791 41.12728882 0.7310791 43.12728882 2.7310791 C43.75360236 10.9003862 42.31611251 19.0162465 41.15585327 27.08898926 C40.81385565 29.48762399 40.49068619 31.88833271 40.16830444 34.28967285 C39.95134444 35.82759437 39.73328391 37.36536113 39.51400757 38.9029541 C39.37318001 39.97026764 39.37318001 39.97026764 39.22950745 41.05914307 C38.60718867 45.24190333 37.67352823 48.33402216 35.12728882 51.7310791 C31.7063464 54.01170738 30.44541659 53.95032917 26.43978882 53.8560791 C25.44592163 53.83803223 24.45205444 53.81998535 23.42807007 53.8013916 C22.28918335 53.76658691 22.28918335 53.76658691 21.12728882 53.7310791 C22.6873042 41.04774764 24.2596805 28.37335081 26.12728882 15.7310791 C18.53728882 16.0610791 10.94728882 16.3910791 3.12728882 16.7310791 C2.26507398 24.17793903 2.26507398 24.17793903 1.42294312 31.6270752 C-0.59452443 48.38385639 -0.59452443 48.38385639 -4.93521118 52.8560791 C-7.87351543 53.73131867 -10.01300649 53.82032149 -13.05630493 53.7857666 C-13.95792358 53.77787109 -14.85954224 53.76997559 -15.78848267 53.76184082 C-16.47627808 53.75168945 -17.16407349 53.74153809 -17.87271118 53.7310791 C-17.34051588 49.44834006 -16.80742539 45.16571356 -16.27359009 40.88317871 C-16.09301987 39.43366328 -15.91267257 37.98412006 -15.73257446 36.5345459 C-15.64604614 35.83821045 -15.55951782 35.141875 -15.47036743 34.42443848 C-15.3837384 33.72686432 -15.29710937 33.02929016 -15.20785522 32.31057739 C-15.0307863 30.89669893 -14.8514515 29.48310245 -14.66989136 28.0697937 C-14.21943147 24.56151858 -13.79606359 21.05486121 -13.43423462 17.53625488 C-13.32195023 16.52892052 -13.32195023 16.52892052 -13.20739746 15.50123596 C-13.003485 13.66952867 -12.81427958 11.83620101 -12.62612915 10.00280762 C-10.76315217 1.9128029 -7.92416342 0.04881903 0 0 Z " fill="#040404" transform="translate(429.8727111816406,232.2689208984375)"/>
<path d="M0 0 C0.91007812 0.00902344 1.82015625 0.01804688 2.7578125 0.02734375 C3.80582031 0.04474609 3.80582031 0.04474609 4.875 0.0625 C5.21952397 8.45212415 3.88875102 16.49713662 2.5625 24.75 C2.09710645 27.70263442 1.63618192 30.65595842 1.17578125 33.609375 C1.00496033 34.69943092 1.00496033 34.69943092 0.83068848 35.81150818 C-0.26757054 42.86786228 -1.21435719 49.94330721 -2.0480957 57.03588867 C-2.77934103 62.81349152 -3.76640704 68.70421144 -6.125 74.0625 C-10.59728631 77.0440242 -14.89992569 76.18544292 -20.125 76.0625 C-19.46258378 66.19799858 -18.14943951 56.46723129 -16.75 46.6875 C-16.29448246 43.49103968 -15.84015287 40.29441276 -15.38671875 37.09765625 C-15.27572342 36.31734543 -15.16472809 35.53703461 -15.05036926 34.733078 C-14.40462023 30.15943764 -13.81015015 25.58363126 -13.26953125 20.99609375 C-13.14690918 19.98530762 -13.02428711 18.97452148 -12.89794922 17.93310547 C-12.68165786 16.12249176 -12.47789873 14.31031548 -12.28955078 12.49658203 C-11.68859079 7.58390907 -10.79577122 4.66281496 -7.125 1.0625 C-4.60024538 -0.19987731 -2.81299534 -0.03606404 0 0 Z " fill="#060606" transform="translate(346.125,209.9375)"/>
<path d="M0 0 C0.9583374 0.00523682 1.9166748 0.01047363 2.90405273 0.01586914 C4.45576172 0.02070313 4.45576172 0.02070313 6.03881836 0.02563477 C7.12743164 0.03401367 8.21604492 0.04239258 9.33764648 0.05102539 C10.97636719 0.05779297 10.97636719 0.05779297 12.64819336 0.06469727 C15.35723144 0.07652713 18.06616248 0.09300996 20.77514648 0.11352539 C20.99797308 8.29827649 19.80739635 15.15388007 17.77514648 23.11352539 C10.18514648 23.11352539 2.59514648 23.11352539 -5.22485352 23.11352539 C-4.89920824 19.11274063 -4.56712091 15.11289647 -4.22485352 11.11352539 C-4.14106445 10.12739258 -4.05727539 9.14125977 -3.97094727 8.12524414 C-3.88973633 7.23450195 -3.80852539 6.34375977 -3.72485352 5.42602539 C-3.65266602 4.6177832 -3.58047852 3.80954102 -3.50610352 2.97680664 C-3.0940217 0.24676464 -2.78041942 0.1418737 0 0 Z " fill="#F8F8F8" transform="translate(372.224853515625,247.886474609375)"/>
<path d="M0 0 C2.54443385 0 5.04327547 0.09848831 7.578125 0.3125 C5.29742325 8.03179825 5.29742325 8.03179825 2.578125 10.3125 C-0.44975503 10.64653659 -3.38878311 10.5414126 -6.421875 10.3125 C-5.04159331 0.65052817 -5.04159331 0.65052817 0 0 Z " fill="#0B0B0B" transform="translate(199.421875,219.6875)"/>
<path d="M0 0 C0.60328125 0.05800781 1.2065625 0.11601562 1.828125 0.17578125 C0.90166795 4.27357206 -0.29322646 7.00926785 -3.171875 10.17578125 C-6.23259101 10.69293671 -9.09813906 10.53044309 -12.171875 10.17578125 C-11.24634572 2.07740007 -7.73669722 -0.43674904 0 0 Z " fill="#0B0B0B" transform="translate(170.171875,219.82421875)"/>
<path d="M0 0 C-0.5545374 3.32722441 -1.24013043 6.1013913 -3 9 C-6.21451269 10.60725635 -9.43612536 10.05748185 -13 10 C-11.92420404 0.53299558 -8.9255675 -0.67362774 0 0 Z " fill="#070707" transform="translate(189,220)"/>
<path d="M0 0 C7.92 0 15.84 0 24 0 C23.67 1.32 23.34 2.64 23 4 C15.41 4 7.82 4 0 4 C0 2.68 0 1.36 0 0 Z " fill="#DFDFDF" transform="translate(283,248)"/>
<path d="M0 0 C7.59 0 15.18 0 23 0 C23 1.32 23 2.64 23 4 C15.08 4 7.16 4 -1 4 C-0.67 2.68 -0.34 1.36 0 0 Z " fill="#E3E3E3" transform="translate(99,248)"/>
</svg>
